<mxfile host="app.diagrams.net" modified="2020-09-15T18:46:14.953Z" agent="5.0 (Macintosh; Intel Mac OS X 10_15_6) AppleWebKit/537.36 (KHTML, like Gecko) Chrome/85.0.4183.102 Safari/537.36" etag="PXpvUchnR1eFpcZSmZqA" version="13.7.1" type="github">
  <diagram id="R2lEEEUBdFMjLlhIrx00" name="Page-1">
    <mxGraphModel dx="668" dy="622" grid="1" gridSize="10" guides="1" tooltips="1" connect="1" arrows="1" fold="1" page="1" pageScale="1" pageWidth="850" pageHeight="1100" math="0" shadow="0" extFonts="Permanent Marker^https://fonts.googleapis.com/css?family=Permanent+Marker">
      <root>
        <mxCell id="0" />
        <mxCell id="1" parent="0" />
        <mxCell id="C-vyLk0tnHw3VtMMgP7b-12" value="" style="edgeStyle=entityRelationEdgeStyle;endArrow=ERzeroToMany;startArrow=ERone;endFill=1;startFill=0;" parent="1" edge="1">
          <mxGeometry width="100" height="100" relative="1" as="geometry">
            <mxPoint x="670" y="165" as="sourcePoint" />
            <mxPoint x="670" y="355" as="targetPoint" />
          </mxGeometry>
        </mxCell>
        <mxCell id="pe0-c1v56QJOiylPw5Yi-1" value="Authors" style="shape=table;startSize=30;container=1;collapsible=1;childLayout=tableLayout;fixedRows=1;rowLines=0;fontStyle=1;align=center;resizeLast=1;" vertex="1" parent="1">
          <mxGeometry x="40" y="30" width="180" height="160" as="geometry" />
        </mxCell>
        <mxCell id="pe0-c1v56QJOiylPw5Yi-2" value="" style="shape=partialRectangle;collapsible=0;dropTarget=0;pointerEvents=0;fillColor=none;top=0;left=0;bottom=1;right=0;points=[[0,0.5],[1,0.5]];portConstraint=eastwest;" vertex="1" parent="pe0-c1v56QJOiylPw5Yi-1">
          <mxGeometry y="30" width="180" height="30" as="geometry" />
        </mxCell>
        <mxCell id="pe0-c1v56QJOiylPw5Yi-3" value="PK" style="shape=partialRectangle;connectable=0;fillColor=none;top=0;left=0;bottom=0;right=0;fontStyle=1;overflow=hidden;" vertex="1" parent="pe0-c1v56QJOiylPw5Yi-2">
          <mxGeometry width="30" height="30" as="geometry" />
        </mxCell>
        <mxCell id="pe0-c1v56QJOiylPw5Yi-4" value="UniqueID" style="shape=partialRectangle;connectable=0;fillColor=none;top=0;left=0;bottom=0;right=0;align=left;spacingLeft=6;fontStyle=5;overflow=hidden;" vertex="1" parent="pe0-c1v56QJOiylPw5Yi-2">
          <mxGeometry x="30" width="150" height="30" as="geometry" />
        </mxCell>
        <mxCell id="pe0-c1v56QJOiylPw5Yi-5" value="" style="shape=partialRectangle;collapsible=0;dropTarget=0;pointerEvents=0;fillColor=none;top=0;left=0;bottom=0;right=0;points=[[0,0.5],[1,0.5]];portConstraint=eastwest;" vertex="1" parent="pe0-c1v56QJOiylPw5Yi-1">
          <mxGeometry y="60" width="180" height="30" as="geometry" />
        </mxCell>
        <mxCell id="pe0-c1v56QJOiylPw5Yi-6" value="" style="shape=partialRectangle;connectable=0;fillColor=none;top=0;left=0;bottom=0;right=0;editable=1;overflow=hidden;" vertex="1" parent="pe0-c1v56QJOiylPw5Yi-5">
          <mxGeometry width="30" height="30" as="geometry" />
        </mxCell>
        <mxCell id="pe0-c1v56QJOiylPw5Yi-7" value="first_name" style="shape=partialRectangle;connectable=0;fillColor=none;top=0;left=0;bottom=0;right=0;align=left;spacingLeft=6;overflow=hidden;" vertex="1" parent="pe0-c1v56QJOiylPw5Yi-5">
          <mxGeometry x="30" width="150" height="30" as="geometry" />
        </mxCell>
        <mxCell id="pe0-c1v56QJOiylPw5Yi-8" value="" style="shape=partialRectangle;collapsible=0;dropTarget=0;pointerEvents=0;fillColor=none;top=0;left=0;bottom=0;right=0;points=[[0,0.5],[1,0.5]];portConstraint=eastwest;" vertex="1" parent="pe0-c1v56QJOiylPw5Yi-1">
          <mxGeometry y="90" width="180" height="30" as="geometry" />
        </mxCell>
        <mxCell id="pe0-c1v56QJOiylPw5Yi-9" value="" style="shape=partialRectangle;connectable=0;fillColor=none;top=0;left=0;bottom=0;right=0;editable=1;overflow=hidden;" vertex="1" parent="pe0-c1v56QJOiylPw5Yi-8">
          <mxGeometry width="30" height="30" as="geometry" />
        </mxCell>
        <mxCell id="pe0-c1v56QJOiylPw5Yi-10" value="last_name" style="shape=partialRectangle;connectable=0;fillColor=none;top=0;left=0;bottom=0;right=0;align=left;spacingLeft=6;overflow=hidden;" vertex="1" parent="pe0-c1v56QJOiylPw5Yi-8">
          <mxGeometry x="30" width="150" height="30" as="geometry" />
        </mxCell>
        <mxCell id="pe0-c1v56QJOiylPw5Yi-11" value="" style="shape=partialRectangle;collapsible=0;dropTarget=0;pointerEvents=0;fillColor=none;top=0;left=0;bottom=0;right=0;points=[[0,0.5],[1,0.5]];portConstraint=eastwest;" vertex="1" parent="pe0-c1v56QJOiylPw5Yi-1">
          <mxGeometry y="120" width="180" height="30" as="geometry" />
        </mxCell>
        <mxCell id="pe0-c1v56QJOiylPw5Yi-12" value="" style="shape=partialRectangle;connectable=0;fillColor=none;top=0;left=0;bottom=0;right=0;editable=1;overflow=hidden;" vertex="1" parent="pe0-c1v56QJOiylPw5Yi-11">
          <mxGeometry width="30" height="30" as="geometry" />
        </mxCell>
        <mxCell id="pe0-c1v56QJOiylPw5Yi-13" value="" style="shape=partialRectangle;connectable=0;fillColor=none;top=0;left=0;bottom=0;right=0;align=left;spacingLeft=6;overflow=hidden;" vertex="1" parent="pe0-c1v56QJOiylPw5Yi-11">
          <mxGeometry x="30" width="150" height="30" as="geometry" />
        </mxCell>
        <mxCell id="pe0-c1v56QJOiylPw5Yi-14" value="Books" style="shape=table;startSize=30;container=1;collapsible=1;childLayout=tableLayout;fixedRows=1;rowLines=0;fontStyle=1;align=center;resizeLast=1;" vertex="1" parent="1">
          <mxGeometry x="400" y="30" width="180" height="210" as="geometry" />
        </mxCell>
        <mxCell id="pe0-c1v56QJOiylPw5Yi-15" value="" style="shape=partialRectangle;collapsible=0;dropTarget=0;pointerEvents=0;fillColor=none;top=0;left=0;bottom=1;right=0;points=[[0,0.5],[1,0.5]];portConstraint=eastwest;" vertex="1" parent="pe0-c1v56QJOiylPw5Yi-14">
          <mxGeometry y="30" width="180" height="30" as="geometry" />
        </mxCell>
        <mxCell id="pe0-c1v56QJOiylPw5Yi-16" value="PK" style="shape=partialRectangle;connectable=0;fillColor=none;top=0;left=0;bottom=0;right=0;fontStyle=1;overflow=hidden;" vertex="1" parent="pe0-c1v56QJOiylPw5Yi-15">
          <mxGeometry width="30" height="30" as="geometry" />
        </mxCell>
        <mxCell id="pe0-c1v56QJOiylPw5Yi-17" value="UniqueID" style="shape=partialRectangle;connectable=0;fillColor=none;top=0;left=0;bottom=0;right=0;align=left;spacingLeft=6;fontStyle=5;overflow=hidden;" vertex="1" parent="pe0-c1v56QJOiylPw5Yi-15">
          <mxGeometry x="30" width="150" height="30" as="geometry" />
        </mxCell>
        <mxCell id="pe0-c1v56QJOiylPw5Yi-18" value="" style="shape=partialRectangle;collapsible=0;dropTarget=0;pointerEvents=0;fillColor=none;top=0;left=0;bottom=0;right=0;points=[[0,0.5],[1,0.5]];portConstraint=eastwest;" vertex="1" parent="pe0-c1v56QJOiylPw5Yi-14">
          <mxGeometry y="60" width="180" height="30" as="geometry" />
        </mxCell>
        <mxCell id="pe0-c1v56QJOiylPw5Yi-19" value="" style="shape=partialRectangle;connectable=0;fillColor=none;top=0;left=0;bottom=0;right=0;editable=1;overflow=hidden;" vertex="1" parent="pe0-c1v56QJOiylPw5Yi-18">
          <mxGeometry width="30" height="30" as="geometry" />
        </mxCell>
        <mxCell id="pe0-c1v56QJOiylPw5Yi-20" value="title" style="shape=partialRectangle;connectable=0;fillColor=none;top=0;left=0;bottom=0;right=0;align=left;spacingLeft=6;overflow=hidden;" vertex="1" parent="pe0-c1v56QJOiylPw5Yi-18">
          <mxGeometry x="30" width="150" height="30" as="geometry" />
        </mxCell>
        <mxCell id="pe0-c1v56QJOiylPw5Yi-21" value="" style="shape=partialRectangle;collapsible=0;dropTarget=0;pointerEvents=0;fillColor=none;top=0;left=0;bottom=0;right=0;points=[[0,0.5],[1,0.5]];portConstraint=eastwest;" vertex="1" parent="pe0-c1v56QJOiylPw5Yi-14">
          <mxGeometry y="90" width="180" height="30" as="geometry" />
        </mxCell>
        <mxCell id="pe0-c1v56QJOiylPw5Yi-22" value="" style="shape=partialRectangle;connectable=0;fillColor=none;top=0;left=0;bottom=0;right=0;editable=1;overflow=hidden;" vertex="1" parent="pe0-c1v56QJOiylPw5Yi-21">
          <mxGeometry width="30" height="30" as="geometry" />
        </mxCell>
        <mxCell id="pe0-c1v56QJOiylPw5Yi-23" value="author_id" style="shape=partialRectangle;connectable=0;fillColor=none;top=0;left=0;bottom=0;right=0;align=left;spacingLeft=6;overflow=hidden;" vertex="1" parent="pe0-c1v56QJOiylPw5Yi-21">
          <mxGeometry x="30" width="150" height="30" as="geometry" />
        </mxCell>
        <mxCell id="pe0-c1v56QJOiylPw5Yi-24" value="" style="shape=partialRectangle;collapsible=0;dropTarget=0;pointerEvents=0;fillColor=none;top=0;left=0;bottom=0;right=0;points=[[0,0.5],[1,0.5]];portConstraint=eastwest;" vertex="1" parent="pe0-c1v56QJOiylPw5Yi-14">
          <mxGeometry y="120" width="180" height="30" as="geometry" />
        </mxCell>
        <mxCell id="pe0-c1v56QJOiylPw5Yi-25" value="" style="shape=partialRectangle;connectable=0;fillColor=none;top=0;left=0;bottom=0;right=0;editable=1;overflow=hidden;" vertex="1" parent="pe0-c1v56QJOiylPw5Yi-24">
          <mxGeometry width="30" height="30" as="geometry" />
        </mxCell>
        <mxCell id="pe0-c1v56QJOiylPw5Yi-26" value="publisher_id" style="shape=partialRectangle;connectable=0;fillColor=none;top=0;left=0;bottom=0;right=0;align=left;spacingLeft=6;overflow=hidden;" vertex="1" parent="pe0-c1v56QJOiylPw5Yi-24">
          <mxGeometry x="30" width="150" height="30" as="geometry" />
        </mxCell>
        <mxCell id="pe0-c1v56QJOiylPw5Yi-27" value="num_pages" style="shape=partialRectangle;connectable=0;fillColor=none;top=0;left=0;bottom=0;right=0;align=left;spacingLeft=6;overflow=hidden;" vertex="1" parent="1">
          <mxGeometry x="430" y="170" width="150" height="50" as="geometry" />
        </mxCell>
        <mxCell id="pe0-c1v56QJOiylPw5Yi-28" value="year" style="shape=partialRectangle;connectable=0;fillColor=none;top=0;left=0;bottom=0;right=0;align=left;spacingLeft=6;overflow=hidden;" vertex="1" parent="1">
          <mxGeometry x="430" y="200" width="150" height="50" as="geometry" />
        </mxCell>
        <mxCell id="pe0-c1v56QJOiylPw5Yi-30" value="" style="edgeStyle=entityRelationEdgeStyle;fontSize=12;html=1;endArrow=ERmany;exitX=1;exitY=0.5;exitDx=0;exitDy=0;" edge="1" parent="1" source="pe0-c1v56QJOiylPw5Yi-2" target="pe0-c1v56QJOiylPw5Yi-21">
          <mxGeometry width="100" height="100" relative="1" as="geometry">
            <mxPoint x="280" y="420" as="sourcePoint" />
            <mxPoint x="380" y="320" as="targetPoint" />
          </mxGeometry>
        </mxCell>
        <mxCell id="pe0-c1v56QJOiylPw5Yi-31" value="Publisher" style="shape=table;startSize=30;container=1;collapsible=1;childLayout=tableLayout;fixedRows=1;rowLines=0;fontStyle=1;align=center;resizeLast=1;" vertex="1" parent="1">
          <mxGeometry x="40" y="240" width="180" height="160" as="geometry" />
        </mxCell>
        <mxCell id="pe0-c1v56QJOiylPw5Yi-32" value="" style="shape=partialRectangle;collapsible=0;dropTarget=0;pointerEvents=0;fillColor=none;top=0;left=0;bottom=1;right=0;points=[[0,0.5],[1,0.5]];portConstraint=eastwest;" vertex="1" parent="pe0-c1v56QJOiylPw5Yi-31">
          <mxGeometry y="30" width="180" height="30" as="geometry" />
        </mxCell>
        <mxCell id="pe0-c1v56QJOiylPw5Yi-33" value="PK" style="shape=partialRectangle;connectable=0;fillColor=none;top=0;left=0;bottom=0;right=0;fontStyle=1;overflow=hidden;" vertex="1" parent="pe0-c1v56QJOiylPw5Yi-32">
          <mxGeometry width="30" height="30" as="geometry" />
        </mxCell>
        <mxCell id="pe0-c1v56QJOiylPw5Yi-34" value="UniqueID" style="shape=partialRectangle;connectable=0;fillColor=none;top=0;left=0;bottom=0;right=0;align=left;spacingLeft=6;fontStyle=5;overflow=hidden;" vertex="1" parent="pe0-c1v56QJOiylPw5Yi-32">
          <mxGeometry x="30" width="150" height="30" as="geometry" />
        </mxCell>
        <mxCell id="pe0-c1v56QJOiylPw5Yi-35" value="" style="shape=partialRectangle;collapsible=0;dropTarget=0;pointerEvents=0;fillColor=none;top=0;left=0;bottom=0;right=0;points=[[0,0.5],[1,0.5]];portConstraint=eastwest;" vertex="1" parent="pe0-c1v56QJOiylPw5Yi-31">
          <mxGeometry y="60" width="180" height="30" as="geometry" />
        </mxCell>
        <mxCell id="pe0-c1v56QJOiylPw5Yi-36" value="" style="shape=partialRectangle;connectable=0;fillColor=none;top=0;left=0;bottom=0;right=0;editable=1;overflow=hidden;" vertex="1" parent="pe0-c1v56QJOiylPw5Yi-35">
          <mxGeometry width="30" height="30" as="geometry" />
        </mxCell>
        <mxCell id="pe0-c1v56QJOiylPw5Yi-37" value="name" style="shape=partialRectangle;connectable=0;fillColor=none;top=0;left=0;bottom=0;right=0;align=left;spacingLeft=6;overflow=hidden;" vertex="1" parent="pe0-c1v56QJOiylPw5Yi-35">
          <mxGeometry x="30" width="150" height="30" as="geometry" />
        </mxCell>
        <mxCell id="pe0-c1v56QJOiylPw5Yi-38" value="" style="shape=partialRectangle;collapsible=0;dropTarget=0;pointerEvents=0;fillColor=none;top=0;left=0;bottom=0;right=0;points=[[0,0.5],[1,0.5]];portConstraint=eastwest;" vertex="1" parent="pe0-c1v56QJOiylPw5Yi-31">
          <mxGeometry y="90" width="180" height="30" as="geometry" />
        </mxCell>
        <mxCell id="pe0-c1v56QJOiylPw5Yi-39" value="" style="shape=partialRectangle;connectable=0;fillColor=none;top=0;left=0;bottom=0;right=0;editable=1;overflow=hidden;" vertex="1" parent="pe0-c1v56QJOiylPw5Yi-38">
          <mxGeometry width="30" height="30" as="geometry" />
        </mxCell>
        <mxCell id="pe0-c1v56QJOiylPw5Yi-40" value="" style="shape=partialRectangle;connectable=0;fillColor=none;top=0;left=0;bottom=0;right=0;align=left;spacingLeft=6;overflow=hidden;" vertex="1" parent="pe0-c1v56QJOiylPw5Yi-38">
          <mxGeometry x="30" width="150" height="30" as="geometry" />
        </mxCell>
        <mxCell id="pe0-c1v56QJOiylPw5Yi-41" value="" style="shape=partialRectangle;collapsible=0;dropTarget=0;pointerEvents=0;fillColor=none;top=0;left=0;bottom=0;right=0;points=[[0,0.5],[1,0.5]];portConstraint=eastwest;" vertex="1" parent="pe0-c1v56QJOiylPw5Yi-31">
          <mxGeometry y="120" width="180" height="30" as="geometry" />
        </mxCell>
        <mxCell id="pe0-c1v56QJOiylPw5Yi-42" value="" style="shape=partialRectangle;connectable=0;fillColor=none;top=0;left=0;bottom=0;right=0;editable=1;overflow=hidden;" vertex="1" parent="pe0-c1v56QJOiylPw5Yi-41">
          <mxGeometry width="30" height="30" as="geometry" />
        </mxCell>
        <mxCell id="pe0-c1v56QJOiylPw5Yi-43" value="" style="shape=partialRectangle;connectable=0;fillColor=none;top=0;left=0;bottom=0;right=0;align=left;spacingLeft=6;overflow=hidden;" vertex="1" parent="pe0-c1v56QJOiylPw5Yi-41">
          <mxGeometry x="30" width="150" height="30" as="geometry" />
        </mxCell>
        <mxCell id="pe0-c1v56QJOiylPw5Yi-44" value="" style="edgeStyle=entityRelationEdgeStyle;fontSize=12;html=1;endArrow=ERmany;exitX=1;exitY=0.5;exitDx=0;exitDy=0;" edge="1" parent="1" source="pe0-c1v56QJOiylPw5Yi-32" target="pe0-c1v56QJOiylPw5Yi-24">
          <mxGeometry width="100" height="100" relative="1" as="geometry">
            <mxPoint x="290" y="370" as="sourcePoint" />
            <mxPoint x="390" y="270" as="targetPoint" />
          </mxGeometry>
        </mxCell>
      </root>
    </mxGraphModel>
  </diagram>
</mxfile>
